<mxfile host="app.diagrams.net" modified="2023-02-17T07:44:58.533Z" agent="5.0 (Windows)" etag="zwMoRtKowyeKFAVL8MG0" version="20.1.1" type="github">
  <diagram id="ijC5JY9GRAWroGjTk09M" name="Page-1">
    <mxGraphModel dx="2942" dy="1112" grid="1" gridSize="10" guides="1" tooltips="1" connect="1" arrows="1" fold="1" page="1" pageScale="1" pageWidth="827" pageHeight="1169" math="0" shadow="0">
      <root>
        <mxCell id="0" />
        <mxCell id="1" parent="0" />
        <mxCell id="QW7fR1jNfkQsueKCNFQ3-1" value="" style="rounded=1;whiteSpace=wrap;html=1;" vertex="1" parent="1">
          <mxGeometry x="350" y="530" width="120" height="60" as="geometry" />
        </mxCell>
      </root>
    </mxGraphModel>
  </diagram>
</mxfile>
